<svg width="76" height="66" viewBox="0 0 76 66" fill="none" xmlns="http://www.w3.org/2000/svg">
<path d="M11.6772 15.8759C11.8559 16.0398 11.9576 16.2085 11.9825 16.3823C11.3272 17.2162 10.5702 17.6332 9.71148 17.6332C9.15056 17.6332 8.75345 17.4098 8.52014 16.963C8.32159 16.5709 8.19997 15.8983 8.1553 14.9452C8.11559 13.456 8.09573 12.0686 8.09573 10.783C7.58941 10.7631 7.27917 10.7383 7.165 10.7085C7.14018 10.6688 7.12777 10.5224 7.12777 10.2692C7.12777 10.0161 7.14018 9.87707 7.165 9.85225L8.11062 9.7629C8.11062 9.65866 8.12551 9.15979 8.1553 8.26629C8.40349 8.01313 8.76586 7.81954 9.24239 7.68551C9.72389 7.54652 10.1508 7.47703 10.5231 7.47703C10.4536 8.10744 10.3965 8.8694 10.3518 9.7629C10.5156 9.76787 11.0095 9.79765 11.8335 9.85225C11.8584 9.93664 11.8708 10.098 11.8708 10.3362C11.8708 10.5745 11.8584 10.7185 11.8335 10.7681C11.3769 10.8277 10.8681 10.8649 10.3071 10.8798C10.2873 11.4705 10.2774 12.2176 10.2774 13.121C10.2774 14.0194 10.2972 14.8683 10.3369 15.6675C10.3518 15.9752 10.5057 16.1291 10.7986 16.1291C11.0964 16.1291 11.3893 16.0447 11.6772 15.8759ZM19.2496 15.7568L19.3241 12.9199C19.3241 12.8753 19.3241 12.8058 19.3241 12.7115C19.3241 12.6122 19.3241 12.5179 19.3241 12.4285C19.3241 12.3392 19.3216 12.2523 19.3166 12.1679C19.3166 12.0835 19.3117 12.0041 19.3017 11.9296C19.2918 11.8502 19.2794 11.7758 19.2645 11.7063C19.2546 11.6368 19.2372 11.5747 19.2124 11.5201C19.1925 11.4606 19.1652 11.4084 19.1305 11.3638C19.1007 11.3141 19.0635 11.2719 19.0188 11.2372C18.9741 11.1975 18.922 11.1627 18.8624 11.1329C18.7483 11.0833 18.5596 11.0585 18.2965 11.0585C17.6909 11.0585 16.9985 11.4357 16.2192 12.1902C16.2192 13.1135 16.2043 14.841 16.1745 17.3726C15.6185 17.4669 15.1618 17.514 14.8044 17.514C14.447 17.514 14.1418 17.4669 13.8886 17.3726C13.9829 16.6677 14.0301 15.2381 14.0301 13.0838C14.0301 10.9294 14.0077 9.19205 13.9631 7.87166C13.9333 7.37527 13.623 7.09481 13.0323 7.03028C13.0274 7.00049 13.0199 6.95582 13.01 6.89625C12.9901 6.78705 12.9802 6.7101 12.9802 6.66543C12.9802 6.60586 12.9827 6.55622 12.9877 6.51651C13.6429 6.26335 14.1939 6.10947 14.6406 6.05487C15.0874 5.9953 15.4076 5.96552 15.6011 5.96552C15.7947 5.96552 15.9139 5.96552 15.9585 5.96552C16.0777 6.11444 16.1521 6.46191 16.1819 7.00794C16.2117 7.55397 16.2266 8.26877 16.2266 9.15234C16.2266 10.031 16.2241 10.6713 16.2192 11.0734C16.6659 10.5323 17.1821 10.1228 17.7679 9.84481C18.3536 9.56683 18.9394 9.42784 19.5251 9.42784C20.1108 9.42784 20.5675 9.62143 20.8951 10.0086C21.2277 10.3958 21.4188 10.9245 21.4685 11.5946C21.4883 11.8924 21.4983 12.1977 21.4983 12.5104C21.4983 12.8231 21.4685 13.3344 21.4089 14.0443C21.3543 14.7541 21.327 15.3895 21.327 15.9504C21.327 16.0795 21.4188 16.1787 21.6025 16.2482C21.7862 16.3177 21.9649 16.3525 22.1386 16.3525C22.3173 16.3525 22.4389 16.3425 22.5034 16.3227C22.563 16.4567 22.5928 16.5808 22.5928 16.695C22.5928 16.8042 22.5878 16.8787 22.5779 16.9184C21.6497 17.3999 20.9572 17.6406 20.5005 17.6406C20.0438 17.6406 19.7212 17.4867 19.5326 17.179C19.3439 16.8662 19.2496 16.3922 19.2496 15.7568ZM26.1519 14.156C26.3008 14.8906 26.6185 15.4838 27.105 15.9355C27.5914 16.3872 28.1598 16.6131 28.8101 16.6131C29.4603 16.6131 30.1156 16.3326 30.7758 15.7717C31.024 15.9355 31.1754 16.1291 31.23 16.3525C30.7733 16.8836 30.0982 17.2634 29.2047 17.4917C28.8423 17.586 28.4229 17.6332 27.9464 17.6332C27.4748 17.6332 26.9858 17.5463 26.4795 17.3726C25.9732 17.2038 25.519 16.9556 25.1169 16.628C24.7198 16.3004 24.4046 15.871 24.1713 15.3398C23.938 14.8037 23.8214 14.2106 23.8214 13.5603C23.8214 12.91 23.9405 12.3218 24.1788 11.7956C24.417 11.2645 24.7322 10.8301 25.1244 10.4926C25.9434 9.78276 26.8816 9.42784 27.9389 9.42784C28.8672 9.42784 29.6713 9.67852 30.3514 10.1799C30.679 10.4281 30.9396 10.7507 31.1332 11.1478C31.3317 11.54 31.431 11.9842 31.431 12.4806C31.431 13.3295 31.1506 13.7762 30.5896 13.8209L26.1519 14.156ZM29.4281 12.2573C29.4281 11.6666 29.2643 11.2049 28.9367 10.8723C28.609 10.5398 28.1797 10.3735 27.6485 10.3735C27.1174 10.3735 26.7153 10.6241 26.4423 11.1255C26.1693 11.6219 26.0328 12.3119 26.0328 13.1954C27.2688 13.0614 28.3857 12.9199 29.3834 12.771C29.4132 12.5923 29.4281 12.4211 29.4281 12.2573ZM15.3256 36.1961C15.5242 36.1961 15.7178 36.1316 15.9064 36.0025L16.2117 36.5014C15.8791 37.0027 15.4497 37.3527 14.9236 37.5513C14.7052 37.6356 14.4793 37.6778 14.246 37.6778C14.0127 37.6778 13.7844 37.6158 13.561 37.4917C13.3426 37.3726 13.149 37.2187 12.9802 37.03C12.8114 36.8414 12.6451 36.6056 12.4813 36.3227C12.3225 36.0398 12.1885 35.7692 12.0793 35.5111C11.9701 35.248 11.8608 34.9502 11.7516 34.6176C11.6176 34.2254 11.4662 33.6943 11.2974 33.0242C10.9549 33.5553 10.6348 33.9872 10.3369 34.3198C10.3369 34.8956 10.327 35.9132 10.3071 37.3726C9.82069 37.4669 9.38634 37.514 9.00412 37.514C8.62687 37.514 8.30918 37.4619 8.05106 37.3577C8.17515 36.6081 8.2372 35.2083 8.2372 33.1582C8.2372 31.1081 8.19997 29.3459 8.12551 27.8717C8.0858 27.3951 7.7706 27.1221 7.17989 27.0526C7.17493 27.0228 7.16748 26.9782 7.15755 26.9186C7.1377 26.8044 7.12777 26.7225 7.12777 26.6729C7.12777 26.6183 7.13025 26.5711 7.13522 26.5314C8.06347 26.1641 9.01157 25.9804 9.97953 25.9804C10.0242 25.9804 10.0714 25.9804 10.121 25.9804C10.2302 26.1194 10.2972 26.3999 10.322 26.8218C10.3469 27.2437 10.3593 28.1 10.3593 29.3906C10.3593 30.6812 10.3568 31.8676 10.3518 32.9497C10.9028 31.9222 11.3893 31.1826 11.8112 30.7309C12.3275 30.1799 12.7618 29.8349 13.1142 29.6959C13.4716 29.5569 13.7918 29.4874 14.0747 29.4874C14.5711 29.4874 14.9732 29.6264 15.281 29.9044C15.5937 30.1774 15.7501 30.5472 15.7501 31.0138C15.7501 31.4754 15.5962 31.8453 15.2884 32.1232C14.9856 32.3963 14.6233 32.5328 14.2013 32.5328C14.112 32.5328 14.0226 32.5253 13.9333 32.5104C13.9333 31.9445 13.8241 31.5449 13.6057 31.3116C13.5064 31.2024 13.3575 31.1478 13.1589 31.1478C12.9653 31.1478 12.7717 31.2273 12.5781 31.3861C12.3845 31.54 12.1612 31.7857 11.908 32.1232C12.593 33.3493 13.2483 34.3347 13.8737 35.0792C14.4992 35.8238 14.9831 36.1961 15.3256 36.1961ZM19.7634 34.156C19.9123 34.8906 20.23 35.4838 20.7164 35.9355C21.2029 36.3872 21.7713 36.6131 22.4215 36.6131C23.0718 36.6131 23.727 36.3326 24.3872 35.7717C24.6354 35.9355 24.7868 36.1291 24.8414 36.3525C24.3848 36.8836 23.7097 37.2634 22.8162 37.4917C22.4538 37.586 22.0344 37.6332 21.5578 37.6332C21.0863 37.6332 20.5973 37.5463 20.091 37.3726C19.5847 37.2038 19.1305 36.9556 18.7284 36.628C18.3313 36.3004 18.0161 35.871 17.7828 35.3398C17.5495 34.8037 17.4328 34.2106 17.4328 33.5603C17.4328 32.91 17.552 32.3218 17.7902 31.7956C18.0285 31.2645 18.3437 30.8301 18.7358 30.4926C19.5549 29.7828 20.4931 29.4278 21.5504 29.4278C22.4786 29.4278 23.2828 29.6785 23.9628 30.1799C24.2904 30.4281 24.5511 30.7507 24.7446 31.1478C24.9432 31.54 25.0425 31.9842 25.0425 32.4806C25.0425 33.3295 24.762 33.7762 24.2011 33.8209L19.7634 34.156ZM23.0395 32.2573C23.0395 31.6666 22.8757 31.2049 22.5481 30.8723C22.2205 30.5398 21.7911 30.3735 21.26 30.3735C20.7289 30.3735 20.3268 30.6241 20.0538 31.1255C19.7807 31.6219 19.6442 32.3119 19.6442 33.1954C20.8803 33.0614 21.9971 32.9199 22.9949 32.771C23.0247 32.5923 23.0395 32.4211 23.0395 32.2573ZM28.6686 34.156C28.8175 34.8906 29.1352 35.4838 29.6217 35.9355C30.1081 36.3872 30.6765 36.6131 31.3268 36.6131C31.977 36.6131 32.6323 36.3326 33.2925 35.7717C33.5407 35.9355 33.6921 36.1291 33.7467 36.3525C33.29 36.8836 32.6149 37.2634 31.7214 37.4917C31.359 37.586 30.9396 37.6332 30.4631 37.6332C29.9915 37.6332 29.5025 37.5463 28.9962 37.3726C28.4899 37.2038 28.0357 36.9556 27.6336 36.628C27.2365 36.3004 26.9213 35.871 26.688 35.3398C26.4547 34.8037 26.3381 34.2106 26.3381 33.5603C26.3381 32.91 26.4572 32.3218 26.6955 31.7956C26.9337 31.2645 27.2489 30.8301 27.6411 30.4926C28.4601 29.7828 29.3983 29.4278 30.4556 29.4278C31.3839 29.4278 32.188 29.6785 32.8681 30.1799C33.1957 30.4281 33.4563 30.7507 33.6499 31.1478C33.8484 31.54 33.9477 31.9842 33.9477 32.4806C33.9477 33.3295 33.6673 33.7762 33.1063 33.8209L28.6686 34.156ZM31.9448 32.2573C31.9448 31.6666 31.781 31.2049 31.4534 30.8723C31.1257 30.5398 30.6964 30.3735 30.1652 30.3735C29.6341 30.3735 29.232 30.6241 28.959 31.1255C28.686 31.6219 28.5495 32.3119 28.5495 33.1954C29.7855 33.0614 30.9024 32.9199 31.9001 32.771C31.9299 32.5923 31.9448 32.4211 31.9448 32.2573ZM35.973 42.2049C36.0723 41.2171 36.1219 39.507 36.1219 37.0747C36.1219 34.6375 36.0524 32.7487 35.9134 31.4084C35.8836 30.8972 35.6032 30.6192 35.072 30.5745C35.0671 30.5447 35.0596 30.51 35.0497 30.4703C35.0447 30.4256 35.0398 30.3908 35.0348 30.366C35.0249 30.2965 35.0199 30.237 35.0199 30.1873C35.0199 30.1377 35.0224 30.093 35.0274 30.0533C35.6876 29.8001 36.2261 29.6463 36.6431 29.5916C37.0601 29.5321 37.3629 29.5023 37.5515 29.5023C37.7451 29.5023 37.8642 29.5023 37.9089 29.5023C38.0231 29.676 38.1 29.9962 38.1397 30.4628C38.4822 30.1501 38.8818 29.9019 39.3385 29.7182C39.8001 29.5346 40.2295 29.4427 40.6266 29.4427C41.0287 29.4427 41.3762 29.475 41.6691 29.5395C41.9619 29.5991 42.2498 29.7133 42.5328 29.882C42.8207 30.0458 43.0689 30.2593 43.2774 30.5224C43.7886 31.1677 44.0443 32.0885 44.0443 33.2848C44.0443 33.8556 43.9549 34.3868 43.7762 34.8782C43.5975 35.3696 43.3617 35.7841 43.0689 36.1217C42.781 36.4592 42.4509 36.7471 42.0786 36.9854C41.3588 37.447 40.6415 37.6778 39.9267 37.6778C39.2119 37.6778 38.6361 37.6059 38.1993 37.4619C38.1993 38.4001 38.1894 39.996 38.1695 42.2496C37.7178 42.329 37.3108 42.3687 36.9484 42.3687C36.591 42.3687 36.2659 42.3141 35.973 42.2049ZM38.1695 31.2595C38.1894 32.5005 38.1993 34.2478 38.1993 36.5014C38.5071 36.6156 38.857 36.6726 39.2492 36.6726C39.6463 36.6726 39.9788 36.6106 40.2469 36.4865C40.5149 36.3574 40.7656 36.1688 40.9989 35.9206C41.5102 35.3696 41.7659 34.5382 41.7659 33.4263C41.7659 32.2796 41.5301 31.5052 41.0585 31.1032C40.7061 30.8004 40.2692 30.649 39.748 30.649C39.2318 30.649 38.7056 30.8525 38.1695 31.2595ZM50.6413 32.3764C50.6413 31.5276 50.4477 31.1032 50.0605 31.1032C49.7776 31.1032 49.5071 31.1851 49.2489 31.3489C48.9908 31.5077 48.7128 31.7311 48.415 32.019C48.415 32.5154 48.4001 34.3049 48.3703 37.3875C47.8193 37.4818 47.3676 37.5289 47.0152 37.5289C46.6677 37.5289 46.3674 37.4818 46.1142 37.3875C46.1738 36.5634 46.2036 35.1512 46.2036 33.1508V31.4084C46.2036 31.0312 46.072 30.8078 45.8089 30.7383C45.6302 30.6837 45.3895 30.644 45.0867 30.6192C45.052 30.4703 45.0346 30.3586 45.0346 30.2841C45.0346 30.2047 45.0371 30.1426 45.042 30.098C45.7568 29.6959 46.6404 29.4949 47.6927 29.4949C47.8665 29.4949 47.9955 29.4973 48.0799 29.5023C48.2239 29.7505 48.3083 30.0086 48.3331 30.2767C48.3629 30.5447 48.3852 30.8004 48.4001 31.0436C49.0653 30.2345 49.6262 29.743 50.0829 29.5693C50.3013 29.4849 50.5321 29.4427 50.7753 29.4427C51.2717 29.4427 51.6688 29.5817 51.9667 29.8597C52.2695 30.1327 52.4209 30.5348 52.4209 31.0659C52.4209 31.473 52.2719 31.813 51.9741 32.086C51.6812 32.3541 51.3263 32.4881 50.9094 32.4881C50.82 32.4881 50.7307 32.4806 50.6413 32.4657V32.3764ZM14.8044 51.2893C14.8044 52.0438 14.4123 52.4211 13.628 52.4211C13.3599 52.4211 13.1664 52.3913 13.0472 52.3317C12.9281 52.2672 12.8685 52.23 12.8685 52.22C12.8834 52.1257 12.8909 52.0289 12.8909 51.9296C12.8909 51.463 12.7395 51.0932 12.4367 50.8202C12.1388 50.5422 11.7368 50.4032 11.2304 50.4032C10.7241 50.4032 10.3171 50.6217 10.0093 51.0585C9.70155 51.4903 9.54767 52.1629 9.54767 53.0763C9.54767 53.9897 9.81076 54.7963 10.3369 55.4962C10.8681 56.1961 11.4588 56.5461 12.109 56.5461C12.67 56.5461 13.2309 56.3202 13.7918 55.8685C13.9209 55.7643 14.0499 55.6402 14.179 55.4962C14.2882 55.5657 14.3999 55.665 14.5141 55.794C14.6332 55.9181 14.7052 56.0373 14.73 56.1514C14.4967 56.4642 14.1442 56.7645 13.6727 57.0524C13.0274 57.4396 12.315 57.6332 11.5357 57.6332C10.7564 57.6332 10.0465 57.4694 9.4062 57.1417C8.77082 56.8141 8.26947 56.345 7.90214 55.7345C7.53481 55.1239 7.35115 54.429 7.35115 53.6496C7.35115 52.1505 7.90462 50.9939 9.01157 50.1799C9.72141 49.6587 10.5851 49.3981 11.6027 49.3981C12.4615 49.3981 13.2085 49.5842 13.8439 49.9565C14.1318 50.1253 14.3627 50.3263 14.5364 50.5596C14.7101 50.7929 14.7995 51.0361 14.8044 51.2893ZM24.6776 53.322C24.6776 53.9723 24.561 54.5828 24.3277 55.1537C24.0944 55.7245 23.7643 56.1912 23.3374 56.5535C22.4786 57.2832 21.3444 57.6481 19.9346 57.6481C19.2298 57.6481 18.5795 57.4818 17.9838 57.1492C17.3881 56.8166 16.9141 56.3525 16.5617 55.7568C16.2092 55.1562 16.033 54.4414 16.033 53.6124C16.033 52.7785 16.2465 52.0289 16.6733 51.3638C17.5122 50.0533 18.9195 49.3981 20.8951 49.3981C21.8879 49.3981 22.7591 49.7381 23.5086 50.4181C24.288 51.128 24.6776 52.0959 24.6776 53.322ZM18.2295 53.5379C18.2295 54.3868 18.4752 55.1289 18.9667 55.7643C19.4581 56.3996 20.0339 56.7173 20.6941 56.7173C21.9152 56.7173 22.5258 55.7221 22.5258 53.7315C22.5258 52.7437 22.2999 51.9421 21.8482 51.3265C21.3965 50.711 20.8207 50.4032 20.1208 50.4032C19.7683 50.4032 19.4631 50.4926 19.2049 50.6713C18.9468 50.85 18.7507 51.0907 18.6167 51.3935C18.3586 51.9743 18.2295 52.6891 18.2295 53.5379ZM26.7923 55.392C27.0702 55.1636 27.3631 55.0495 27.6709 55.0495C27.9786 55.0495 28.2343 55.1487 28.4378 55.3473C28.6463 55.5409 28.7505 55.8139 28.7505 56.1663C28.7505 56.5138 28.6165 56.8067 28.3484 57.0449C28.0853 57.2832 27.795 57.4023 27.4773 57.4023C27.1596 57.4023 26.8915 57.3055 26.6731 57.112C26.4597 56.9134 26.3529 56.6453 26.3529 56.3078C26.3529 55.9653 26.4994 55.66 26.7923 55.392Z" fill="#2D2D2D"/>
<rect x="0.833935" y="0.833935" width="73.8628" height="64.3321" rx="3.93141" stroke="#2D2D2D" stroke-width="1.66787"/>
</svg>
